Decovar-High24.ufo
<glyph name="numbersign" format="1">
  <advance width="1192"/>
  <unicode hex="0023"/>
  <outline>
    <contour>
      <point x="274" y="1400" type="line"/>
      <point x="418" y="1400" type="line"/>
      <point x="418" y="0" type="line"/>
      <point x="274" y="0" type="line"/>
    </contour>
    <contour>
      <point x="774" y="1400" type="line"/>
      <point x="918" y="1400" type="line"/>
      <point x="918" y="0" type="line"/>
      <point x="774" y="0" type="line"/>
    </contour>
    <contour>
      <point x="36" y="372" type="line"/>
      <point x="36" y="522" type="line"/>
      <point x="1156" y="522" type="line"/>
      <point x="1156" y="372" type="line"/>
    </contour>
    <contour>
      <point x="36" y="877" type="line"/>
      <point x="36" y="1028" type="line"/>
      <point x="1156" y="1028" type="line"/>
      <point x="1156" y="877" type="line"/>
    </contour>
  </outline>
</glyph>
<glyph name="zero" format="1">
  <advance width="1149"/>
  <unicode hex="0030"/>
  <outline>
    <contour>
      <point x="576" y="1407" type="qcurve" smooth="yes"/>
      <point x="777" y="1407"/>
      <point x="985" y="1190"/>
      <point x="985" y="989" type="qcurve" smooth="yes"/>
      <point x="985" y="785"/>
      <point x="985" y="436"/>
      <point x="985" y="386" type="qcurve" smooth="yes"/>
      <point x="985" y="191"/>
      <point x="757" y="-32"/>
      <point x="574" y="-32" type="qcurve" smooth="yes"/>
      <point x="409" y="-32"/>
      <point x="164" y="176"/>
      <point x="164" y="386" type="qcurve" smooth="yes"/>
      <point x="164" y="436"/>
      <point x="164" y="785"/>
      <point x="164" y="989" type="qcurve" smooth="yes"/>
      <point x="164" y="1190"/>
      <point x="375" y="1407"/>
    </contour>
    <contour>
      <point x="576" y="1247" type="qcurve" smooth="yes"/>
      <point x="458" y="1247"/>
      <point x="327" y="1121"/>
      <point x="327" y="966" type="qcurve" smooth="yes"/>
      <point x="327" y="918"/>
      <point x="327" y="586"/>
      <point x="327" y="431" type="qcurve" smooth="yes"/>
      <point x="327" y="251"/>
      <point x="454" y="116"/>
      <point x="574" y="116" type="qcurve" smooth="yes"/>
      <point x="694" y="116"/>
      <point x="822" y="251"/>
      <point x="822" y="431" type="qcurve" smooth="yes"/>
      <point x="822" y="586"/>
      <point x="822" y="918"/>
      <point x="822" y="966" type="qcurve" smooth="yes"/>
      <point x="822" y="1121"/>
      <point x="694" y="1247"/>
    </contour>
  </outline>
</glyph>
<glyph name="one" format="1">
  <advance width="762"/>
  <unicode hex="0031"/>
  <outline>
    <contour>
      <point x="492" y="1408" type="line"/>
      <point x="492" y="0" type="line"/>
      <point x="328" y="0" type="line"/>
      <point x="328" y="1244" type="line"/>
    </contour>
    <contour>
      <point x="92" y="1008" type="line"/>
      <point x="92" y="1111" type="line"/>
      <point x="389" y="1408" type="line"/>
      <point x="492" y="1408" type="line"/>
    </contour>
    <contour>
      <point x="492" y="1307" type="line"/>
      <point x="92" y="907" type="line"/>
      <point x="92" y="1008" type="line"/>
      <point x="492" y="1408" type="line"/>
    </contour>
  </outline>
</glyph>
<glyph name="three" format="1">
  <advance width="948"/>
  <unicode hex="0033"/>
  <outline>
    <contour>
      <point x="716" y="353" type="line" smooth="yes"/>
      <point x="716" y="236"/>
      <point x="591" y="120"/>
      <point x="463" y="120" type="qcurve" smooth="yes"/>
      <point x="322" y="120"/>
      <point x="188" y="257"/>
      <point x="188" y="382" type="qcurve" smooth="yes"/>
      <point x="188" y="410"/>
      <point x="188" y="431"/>
      <point x="188" y="445" type="qcurve"/>
      <point x="20" y="445" type="line"/>
      <point x="20" y="429"/>
      <point x="20" y="396"/>
      <point x="20" y="380" type="qcurve" smooth="yes"/>
      <point x="20" y="179"/>
      <point x="263" y="-34"/>
      <point x="457" y="-34" type="qcurve" smooth="yes"/>
      <point x="657" y="-34"/>
      <point x="884" y="191"/>
      <point x="884" y="351" type="qcurve" smooth="yes"/>
      <point x="884" y="475" type="line" smooth="yes"/>
      <point x="884" y="589"/>
      <point x="761" y="721"/>
      <point x="672" y="741" type="qcurve" smooth="yes"/>
      <point x="647" y="747"/>
      <point x="634" y="752"/>
      <point x="669" y="760" type="qcurve" smooth="yes"/>
      <point x="730" y="774"/>
      <point x="843" y="910"/>
      <point x="843" y="1004" type="qcurve" smooth="yes"/>
      <point x="843" y="1104" type="line" smooth="yes"/>
      <point x="843" y="1244"/>
      <point x="630" y="1417"/>
      <point x="461" y="1417" type="qcurve" smooth="yes"/>
      <point x="287" y="1417"/>
      <point x="84" y="1241"/>
      <point x="84" y="1099" type="qcurve" smooth="yes"/>
      <point x="84" y="1004" type="line"/>
      <point x="252" y="1004" type="line"/>
      <point x="252" y="1087" type="line" smooth="yes"/>
      <point x="252" y="1168"/>
      <point x="374" y="1257"/>
      <point x="467" y="1257" type="qcurve" smooth="yes"/>
      <point x="566" y="1257"/>
      <point x="675" y="1155"/>
      <point x="675" y="1077" type="qcurve" smooth="yes"/>
      <point x="675" y="995" type="line" smooth="yes"/>
      <point x="675" y="909"/>
      <point x="571" y="818"/>
      <point x="509" y="818" type="qcurve" smooth="yes"/>
      <point x="367" y="818" type="line"/>
      <point x="367" y="668" type="line"/>
      <point x="484" y="668" type="line" smooth="yes"/>
      <point x="590" y="668"/>
      <point x="716" y="562"/>
      <point x="716" y="475" type="qcurve" smooth="yes"/>
    </contour>
  </outline>
</glyph>
<glyph name="four" format="1">
  <advance width="1071"/>
  <unicode hex="0034"/>
  <outline>
    <contour>
      <point x="816" y="1408" type="line"/>
      <point x="816" y="0" type="line"/>
      <point x="660" y="0" type="line"/>
      <point x="660" y="1212" type="line"/>
    </contour>
    <contour>
      <point x="88" y="491" type="line"/>
      <point x="36" y="543" type="line"/>
      <point x="722" y="1408" type="line"/>
      <point x="816" y="1408" type="line"/>
    </contour>
    <contour>
      <point x="816" y="1290" type="line"/>
      <point x="140" y="439" type="line"/>
      <point x="88" y="491" type="line"/>
      <point x="722" y="1290" type="line"/>
    </contour>
    <contour>
      <point x="27" y="549" type="line"/>
      <point x="1071" y="549" type="line"/>
      <point x="1071" y="476" type="line"/>
      <point x="27" y="476" type="line"/>
    </contour>
    <contour>
      <point x="27" y="476" type="line"/>
      <point x="1071" y="476" type="line"/>
      <point x="1071" y="403" type="line"/>
      <point x="27" y="403" type="line"/>
    </contour>
  </outline>
</glyph>
<glyph name="six" format="1">
  <advance width="1066"/>
  <unicode hex="0036"/>
  <outline>
    <contour>
      <point x="1016" y="451" type="qcurve" smooth="yes"/>
      <point x="1016" y="666"/>
      <point x="750" y="913"/>
      <point x="533" y="913" type="qcurve" smooth="yes"/>
      <point x="313" y="913"/>
      <point x="50" y="666"/>
      <point x="50" y="451" type="qcurve" smooth="yes"/>
      <point x="50" y="234"/>
      <point x="316" y="-24"/>
      <point x="533" y="-24" type="qcurve" smooth="yes"/>
      <point x="750" y="-24"/>
      <point x="1016" y="236"/>
    </contour>
    <contour>
      <point x="851" y="450" type="qcurve" smooth="yes"/>
      <point x="851" y="294"/>
      <point x="676" y="116"/>
      <point x="533" y="116" type="qcurve" smooth="yes"/>
      <point x="391" y="116"/>
      <point x="215" y="294"/>
      <point x="215" y="450" type="qcurve" smooth="yes"/>
      <point x="215" y="599"/>
      <point x="391" y="780"/>
      <point x="533" y="780" type="qcurve" smooth="yes"/>
      <point x="676" y="780"/>
      <point x="851" y="599"/>
    </contour>
    <contour>
      <point x="734" y="1427" type="line"/>
      <point x="169" y="778" type="line"/>
      <point x="259" y="669" type="line"/>
      <point x="949" y="1427" type="line"/>
    </contour>
  </outline>
</glyph>
<glyph name="seven" format="1">
  <advance width="979"/>
  <unicode hex="0037"/>
  <outline>
    <contour>
      <point x="980" y="1212" type="qcurve"/>
      <point x="289" y="0" type="line" smooth="yes"/>
      <point x="90" y="-1" type="line"/>
      <point x="823" y="1246" type="line"/>
      <point x="4" y="1246" type="line"/>
      <point x="4" y="1400" type="line"/>
      <point x="928" y="1400" type="line" smooth="yes"/>
      <point x="961" y="1400"/>
      <point x="982" y="1398"/>
      <point x="995" y="1330" type="qcurve" smooth="yes"/>
      <point x="1011" y="1251"/>
      <point x="1006" y="1238"/>
    </contour>
  </outline>
</glyph>
<glyph name="nine" format="1">
  <advance width="1066"/>
  <unicode hex="0039"/>
  <outline>
    <contour>
      <point x="50" y="978" type="qcurve" smooth="yes"/>
      <point x="50" y="775"/>
      <point x="301" y="542"/>
      <point x="506" y="542" type="qcurve" smooth="yes"/>
      <point x="714" y="542"/>
      <point x="962" y="775"/>
      <point x="962" y="978" type="qcurve" smooth="yes"/>
      <point x="962" y="1183"/>
      <point x="711" y="1427"/>
      <point x="506" y="1427" type="qcurve" smooth="yes"/>
      <point x="301" y="1427"/>
      <point x="50" y="1181"/>
    </contour>
    <contour>
      <point x="206" y="979" type="qcurve" smooth="yes"/>
      <point x="206" y="1127"/>
      <point x="371" y="1295"/>
      <point x="506" y="1295" type="qcurve" smooth="yes"/>
      <point x="640" y="1295"/>
      <point x="806" y="1127"/>
      <point x="806" y="979" type="qcurve" smooth="yes"/>
      <point x="806" y="839"/>
      <point x="640" y="668"/>
      <point x="506" y="668" type="qcurve" smooth="yes"/>
      <point x="371" y="668"/>
      <point x="206" y="839"/>
    </contour>
    <contour>
      <point x="402" y="-24" type="line"/>
      <point x="880" y="708" type="line"/>
      <point x="780" y="821" type="line"/>
      <point x="197" y="-24" type="line"/>
    </contour>
  </outline>
</glyph>
<glyph name="B" format="1">
  <advance width="1061.0"/>
  <unicode hex="0042"/>
  <outline>
    <contour>
      <point x="816" y="775" type="qcurve"/>
      <point x="887" y="734"/>
      <point x="1012" y="559"/>
      <point x="1012" y="429" type="qcurve" smooth="yes"/>
      <point x="1012" y="246"/>
      <point x="764" y="0"/>
      <point x="547" y="0" type="qcurve"/>
      <point x="537" y="0"/>
      <point x="479" y="0"/>
      <point x="468" y="0" type="qcurve"/>
      <point x="428" y="0"/>
      <point x="428" y="0"/>
      <point x="428" y="39" type="qcurve"/>
      <point x="428" y="76"/>
      <point x="428" y="76"/>
      <point x="468" y="76" type="qcurve"/>
      <point x="479" y="76"/>
      <point x="509" y="76"/>
      <point x="520" y="76" type="qcurve"/>
      <point x="723" y="76"/>
      <point x="929" y="269"/>
      <point x="929" y="425" type="qcurve" smooth="yes"/>
      <point x="929" y="542"/>
      <point x="843" y="675"/>
      <point x="755" y="723" type="qcurve"/>
      <point x="774" y="735"/>
      <point x="803" y="761"/>
    </contour>
    <contour>
      <point x="526" y="1368" type="qcurve"/>
      <point x="693" y="1368"/>
      <point x="908" y="1181"/>
      <point x="908" y="1036" type="qcurve" smooth="yes"/>
      <point x="908" y="885"/>
      <point x="738" y="682"/>
      <point x="607" y="682" type="qcurve"/>
      <point x="547" y="682"/>
      <point x="478" y="682"/>
      <point x="468" y="682" type="qcurve"/>
      <point x="428" y="682"/>
      <point x="428" y="682"/>
      <point x="428" y="720" type="qcurve"/>
      <point x="428" y="758"/>
      <point x="428" y="758"/>
      <point x="468" y="758" type="qcurve"/>
      <point x="478" y="758"/>
      <point x="505" y="758"/>
      <point x="543" y="758" type="qcurve"/>
      <point x="689" y="758"/>
      <point x="829" y="904"/>
      <point x="829" y="1025" type="qcurve" smooth="yes"/>
      <point x="829" y="1145"/>
      <point x="656" y="1292"/>
      <point x="493" y="1292" type="qcurve" smooth="yes"/>
      <point x="483" y="1292"/>
      <point x="478" y="1292"/>
      <point x="468" y="1292" type="qcurve"/>
      <point x="428" y="1292"/>
      <point x="428" y="1292"/>
      <point x="428" y="1330" type="qcurve"/>
      <point x="428" y="1368"/>
      <point x="428" y="1368"/>
      <point x="468" y="1368" type="qcurve"/>
      <point x="478" y="1368"/>
      <point x="493" y="1368"/>
    </contour>
    <contour>
      <point x="493" y="1292" type="qcurve"/>
      <point x="656" y="1292"/>
      <point x="829" y="1145"/>
      <point x="829" y="1025" type="qcurve" smooth="yes"/>
      <point x="829" y="904"/>
      <point x="689" y="758"/>
      <point x="543" y="758" type="qcurve" smooth="yes"/>
      <point x="533" y="758"/>
      <point x="478" y="758"/>
      <point x="468" y="758" type="qcurve"/>
      <point x="428" y="758"/>
      <point x="428" y="758"/>
      <point x="428" y="796" type="qcurve"/>
      <point x="428" y="834"/>
      <point x="428" y="834"/>
      <point x="468" y="834" type="qcurve"/>
      <point x="478" y="834"/>
      <point x="533" y="834"/>
      <point x="543" y="834" type="qcurve" smooth="yes"/>
      <point x="659" y="834"/>
      <point x="749" y="934"/>
      <point x="749" y="1025" type="qcurve" smooth="yes"/>
      <point x="749" y="1118"/>
      <point x="612" y="1216"/>
      <point x="493" y="1216" type="qcurve" smooth="yes"/>
      <point x="483" y="1216"/>
      <point x="478" y="1216"/>
      <point x="468" y="1216" type="qcurve"/>
      <point x="428" y="1216"/>
      <point x="428" y="1216"/>
      <point x="428" y="1253" type="qcurve"/>
      <point x="428" y="1292"/>
      <point x="428" y="1292"/>
      <point x="468" y="1292" type="qcurve"/>
      <point x="478" y="1292"/>
      <point x="483" y="1292"/>
    </contour>
    <contour>
      <point x="755" y="723" type="qcurve"/>
      <point x="843" y="675"/>
      <point x="929" y="542"/>
      <point x="929" y="425" type="qcurve" smooth="yes"/>
      <point x="929" y="269"/>
      <point x="723" y="76"/>
      <point x="520" y="76" type="qcurve"/>
      <point x="509" y="76"/>
      <point x="479" y="76"/>
      <point x="468" y="76" type="qcurve"/>
      <point x="428" y="76"/>
      <point x="428" y="76"/>
      <point x="428" y="114" type="qcurve"/>
      <point x="428" y="152"/>
      <point x="428" y="152"/>
      <point x="468" y="152" type="qcurve"/>
      <point x="479" y="152"/>
      <point x="509" y="152"/>
      <point x="520" y="152" type="qcurve"/>
      <point x="680" y="152"/>
      <point x="849" y="297"/>
      <point x="849" y="425" type="qcurve" smooth="yes"/>
      <point x="849" y="541"/>
      <point x="725" y="666"/>
      <point x="650" y="685" type="qcurve"/>
      <point x="682" y="690"/>
      <point x="731" y="708"/>
    </contour>
    <contour>
      <point x="346" y="872" type="qcurve"/>
      <point x="346" y="834"/>
      <point x="346" y="834"/>
      <point x="305" y="834" type="qcurve"/>
      <point x="264" y="834"/>
      <point x="264" y="834"/>
      <point x="264" y="872" type="qcurve"/>
      <point x="264" y="910"/>
      <point x="264" y="947"/>
      <point x="264" y="1027" type="qcurve"/>
      <point x="264" y="1103"/>
      <point x="264" y="1140"/>
      <point x="264" y="1178" type="qcurve"/>
      <point x="264" y="1216"/>
      <point x="264" y="1216"/>
      <point x="305" y="1216" type="qcurve"/>
      <point x="346" y="1216"/>
      <point x="346" y="1216"/>
      <point x="346" y="1178" type="qcurve"/>
      <point x="346" y="1140"/>
      <point x="346" y="1103"/>
      <point x="346" y="1027" type="qcurve"/>
      <point x="346" y="947"/>
      <point x="346" y="910"/>
    </contour>
    <contour>
      <point x="428" y="872" type="qcurve"/>
      <point x="428" y="834"/>
      <point x="428" y="834"/>
      <point x="387" y="834" type="qcurve"/>
      <point x="346" y="834"/>
      <point x="346" y="834"/>
      <point x="346" y="872" type="qcurve"/>
      <point x="346" y="910"/>
      <point x="346" y="947"/>
      <point x="346" y="1027" type="qcurve"/>
      <point x="346" y="1103"/>
      <point x="346" y="1140"/>
      <point x="346" y="1178" type="qcurve"/>
      <point x="346" y="1216"/>
      <point x="346" y="1216"/>
      <point x="387" y="1216" type="qcurve"/>
      <point x="428" y="1216"/>
      <point x="428" y="1216"/>
      <point x="428" y="1178" type="qcurve"/>
      <point x="428" y="1140"/>
      <point x="428" y="1103"/>
      <point x="428" y="1027" type="qcurve"/>
      <point x="428" y="947"/>
      <point x="428" y="910"/>
    </contour>
    <contour>
      <point x="346" y="190" type="qcurve"/>
      <point x="346" y="152"/>
      <point x="346" y="152"/>
      <point x="305" y="152" type="qcurve"/>
      <point x="264" y="152"/>
      <point x="264" y="152"/>
      <point x="264" y="190" type="qcurve"/>
      <point x="264" y="228"/>
      <point x="264" y="309"/>
      <point x="264" y="424" type="qcurve"/>
      <point x="264" y="535"/>
      <point x="264" y="606"/>
      <point x="264" y="644" type="qcurve"/>
      <point x="264" y="682"/>
      <point x="264" y="682"/>
      <point x="305" y="682" type="qcurve"/>
      <point x="346" y="682"/>
      <point x="346" y="682"/>
      <point x="346" y="644" type="qcurve"/>
      <point x="346" y="606"/>
      <point x="346" y="534"/>
      <point x="346" y="424" type="qcurve"/>
      <point x="346" y="309"/>
      <point x="346" y="228"/>
    </contour>
    <contour>
      <point x="428" y="190" type="qcurve"/>
      <point x="428" y="152"/>
      <point x="428" y="152"/>
      <point x="387" y="152" type="qcurve"/>
      <point x="346" y="152"/>
      <point x="346" y="152"/>
      <point x="346" y="190" type="qcurve"/>
      <point x="346" y="228"/>
      <point x="346" y="309"/>
      <point x="346" y="424" type="qcurve"/>
      <point x="346" y="534"/>
      <point x="346" y="606"/>
      <point x="346" y="644" type="qcurve"/>
      <point x="346" y="682"/>
      <point x="346" y="682"/>
      <point x="387" y="682" type="qcurve"/>
      <point x="428" y="682"/>
      <point x="428" y="682"/>
      <point x="428" y="644" type="qcurve"/>
      <point x="428" y="606"/>
      <point x="428" y="534"/>
      <point x="428" y="424" type="qcurve"/>
      <point x="428" y="309"/>
      <point x="428" y="228"/>
    </contour>
    <component base="WaistElement" xOffset="18" yOffset="74"/>
    <component base="BaseElementV2" xOffset="18"/>
    <component base="TopElementV2" xOffset="18"/>
  </outline>
</glyph>
<glyph name="C" format="1">
  <advance width="1148"/>
  <unicode hex="0043"/>
  <outline>
    <contour>
      <point x="943" y="1315" type="qcurve"/>
      <point x="902" y="1322"/>
      <point x="854" y="1326"/>
      <point x="807" y="1326" type="qcurve" smooth="yes"/>
      <point x="518" y="1326"/>
      <point x="166" y="987"/>
      <point x="166" y="684" type="qcurve" smooth="yes"/>
      <point x="166" y="375"/>
      <point x="528" y="35"/>
      <point x="807" y="35" type="qcurve" smooth="yes"/>
      <point x="857" y="35"/>
      <point x="908" y="39"/>
      <point x="946" y="45" type="qcurve"/>
      <point x="984" y="53"/>
      <point x="984" y="53"/>
      <point x="984" y="90" type="qcurve"/>
      <point x="984" y="127"/>
      <point x="984" y="127"/>
      <point x="946" y="119" type="qcurve"/>
      <point x="908" y="111"/>
      <point x="857" y="107"/>
      <point x="807" y="107" type="qcurve" smooth="yes"/>
      <point x="559" y="107"/>
      <point x="246" y="418"/>
      <point x="246" y="684" type="qcurve" smooth="yes"/>
      <point x="246" y="960"/>
      <point x="563" y="1249"/>
      <point x="807" y="1249" type="qcurve" smooth="yes"/>
      <point x="854" y="1249"/>
      <point x="902" y="1244"/>
      <point x="943" y="1235" type="qcurve"/>
      <point x="984" y="1225"/>
      <point x="984" y="1225"/>
      <point x="984" y="1267" type="qcurve"/>
      <point x="984" y="1306"/>
      <point x="984" y="1306"/>
    </contour>
    <contour>
      <point x="946" y="1394" type="qcurve"/>
      <point x="904" y="1400"/>
      <point x="853" y="1404"/>
      <point x="807" y="1404" type="qcurve" smooth="yes"/>
      <point x="481" y="1404"/>
      <point x="82" y="1016"/>
      <point x="82" y="684" type="qcurve" smooth="yes"/>
      <point x="82" y="352"/>
      <point x="481" y="-38"/>
      <point x="807" y="-38" type="qcurve" smooth="yes"/>
      <point x="855" y="-38"/>
      <point x="906" y="-34"/>
      <point x="947" y="-27" type="qcurve"/>
      <point x="984" y="-20"/>
      <point x="984" y="-20"/>
      <point x="984" y="15" type="qcurve"/>
      <point x="984" y="53"/>
      <point x="984" y="53"/>
      <point x="946" y="45" type="qcurve"/>
      <point x="908" y="39"/>
      <point x="857" y="35"/>
      <point x="807" y="35" type="qcurve" smooth="yes"/>
      <point x="528" y="35"/>
      <point x="166" y="375"/>
      <point x="166" y="684" type="qcurve" smooth="yes"/>
      <point x="166" y="987"/>
      <point x="518" y="1326"/>
      <point x="807" y="1326" type="qcurve" smooth="yes"/>
      <point x="854" y="1326"/>
      <point x="902" y="1322"/>
      <point x="943" y="1315" type="qcurve"/>
      <point x="984" y="1306"/>
      <point x="984" y="1306"/>
      <point x="984" y="1347" type="qcurve"/>
      <point x="984" y="1387"/>
      <point x="984" y="1387"/>
    </contour>
    <contour>
      <point x="1027" y="140" type="qcurve"/>
      <point x="1066" y="155"/>
      <point x="1066" y="155"/>
      <point x="1066" y="118" type="qcurve"/>
      <point x="1066" y="79"/>
      <point x="1066" y="79"/>
      <point x="1026" y="65" type="qcurve"/>
      <point x="984" y="53"/>
      <point x="984" y="53"/>
      <point x="984" y="90" type="qcurve"/>
      <point x="984" y="127"/>
      <point x="984" y="127"/>
    </contour>
    <contour>
      <point x="1026" y="65" type="qcurve"/>
      <point x="1066" y="79"/>
      <point x="1066" y="79"/>
      <point x="1066" y="41" type="qcurve"/>
      <point x="1066" y="2"/>
      <point x="1066" y="2"/>
      <point x="1025" y="-10" type="qcurve"/>
      <point x="984" y="-20"/>
      <point x="984" y="-20"/>
      <point x="984" y="15" type="qcurve"/>
      <point x="984" y="53"/>
      <point x="984" y="53"/>
    </contour>
    <contour>
      <point x="1105" y="176" type="qcurve"/>
      <point x="1148" y="206"/>
      <point x="1148" y="206"/>
      <point x="1148" y="154" type="qcurve" smooth="yes"/>
      <point x="1148" y="122"/>
      <point x="1148" y="122"/>
      <point x="1107" y="98" type="qcurve"/>
      <point x="1066" y="79"/>
      <point x="1066" y="79"/>
      <point x="1066" y="118" type="qcurve"/>
      <point x="1066" y="155"/>
      <point x="1066" y="155"/>
    </contour>
    <contour>
      <point x="1107" y="98" type="qcurve"/>
      <point x="1148" y="122"/>
      <point x="1148" y="122"/>
      <point x="1148" y="67" type="qcurve"/>
      <point x="1148" y="36"/>
      <point x="1148" y="36"/>
      <point x="1107" y="18" type="qcurve"/>
      <point x="1066" y="2"/>
      <point x="1066" y="2"/>
      <point x="1066" y="41" type="qcurve"/>
      <point x="1066" y="79"/>
      <point x="1066" y="79"/>
    </contour>
    <component base="TopCurvedElement" xOffset="738"/>
  </outline>
</glyph>
<glyph name="F" format="1">
  <advance width="738.0"/>
  <unicode hex="0046"/>
  <outline>
    <contour>
      <point x="368" y="912" type="qcurve" smooth="yes"/>
      <point x="328" y="912"/>
      <point x="328" y="912"/>
      <point x="328" y="950" type="qcurve" smooth="yes"/>
      <point x="328" y="988"/>
      <point x="328" y="988"/>
      <point x="368" y="988" type="qcurve"/>
      <point x="409" y="988"/>
      <point x="409" y="988"/>
      <point x="453" y="988" type="qcurve" smooth="yes"/>
      <point x="493" y="988"/>
      <point x="493" y="988"/>
      <point x="493" y="949" type="qcurve" smooth="yes"/>
      <point x="493" y="912"/>
      <point x="493" y="912"/>
      <point x="453" y="912" type="qcurve" smooth="yes"/>
      <point x="409" y="912"/>
      <point x="409" y="912"/>
    </contour>
    <contour>
      <point x="368" y="988" type="qcurve" smooth="yes"/>
      <point x="328" y="988"/>
      <point x="328" y="988"/>
      <point x="328" y="1026" type="qcurve" smooth="yes"/>
      <point x="328" y="1064"/>
      <point x="328" y="1064"/>
      <point x="368" y="1064" type="qcurve"/>
      <point x="409" y="1064"/>
      <point x="409" y="1064"/>
      <point x="453" y="1064" type="qcurve" smooth="yes"/>
      <point x="493" y="1064"/>
      <point x="493" y="1064"/>
      <point x="493" y="1025" type="qcurve" smooth="yes"/>
      <point x="493" y="988"/>
      <point x="493" y="988"/>
      <point x="453" y="988" type="qcurve" smooth="yes"/>
      <point x="409" y="988"/>
      <point x="409" y="988"/>
    </contour>
    <contour>
      <point x="368" y="1216" type="qcurve" smooth="yes"/>
      <point x="328" y="1216"/>
      <point x="328" y="1216"/>
      <point x="328" y="1254" type="qcurve" smooth="yes"/>
      <point x="328" y="1292"/>
      <point x="328" y="1292"/>
      <point x="368" y="1292" type="qcurve"/>
      <point x="390" y="1292"/>
      <point x="430" y="1292"/>
      <point x="449" y="1292" type="qcurve" smooth="yes"/>
      <point x="470" y="1292"/>
      <point x="512" y="1292"/>
      <point x="534" y="1292" type="qcurve" smooth="yes"/>
      <point x="574" y="1292"/>
      <point x="574" y="1292"/>
      <point x="574" y="1253" type="qcurve" smooth="yes"/>
      <point x="574" y="1216"/>
      <point x="574" y="1216"/>
      <point x="534" y="1216" type="qcurve" smooth="yes"/>
      <point x="512" y="1216"/>
      <point x="470" y="1216"/>
      <point x="449" y="1216" type="qcurve" smooth="yes"/>
      <point x="430" y="1216"/>
      <point x="390" y="1216"/>
    </contour>
    <contour>
      <point x="368.0" y="1292.0" type="qcurve" smooth="yes"/>
      <point x="328.0" y="1292.0"/>
      <point x="328.0" y="1292.0"/>
      <point x="328.0" y="1330.0" type="qcurve" smooth="yes"/>
      <point x="328.0" y="1368.0"/>
      <point x="328.0" y="1368.0"/>
      <point x="368.0" y="1368.0" type="qcurve"/>
      <point x="390.0" y="1368.0"/>
      <point x="430.0" y="1368.0"/>
      <point x="449.0" y="1368.0" type="qcurve" smooth="yes"/>
      <point x="470.0" y="1368.0"/>
      <point x="512.0" y="1368.0"/>
      <point x="534.0" y="1368.0" type="qcurve" smooth="yes"/>
      <point x="574.0" y="1368.0"/>
      <point x="574.0" y="1368.0"/>
      <point x="574.0" y="1329.0" type="qcurve" smooth="yes"/>
      <point x="574.0" y="1292.0"/>
      <point x="574.0" y="1292.0"/>
      <point x="534.0" y="1292.0" type="qcurve" smooth="yes"/>
      <point x="512.0" y="1292.0"/>
      <point x="470.0" y="1292.0"/>
      <point x="449.0" y="1292.0" type="qcurve" smooth="yes"/>
      <point x="430.0" y="1292.0"/>
      <point x="390.0" y="1292.0"/>
    </contour>
    <component base="TopElementV2" xOffset="-82"/>
    <component base="BaseElementV3" xOffset="-82"/>
    <component base="MidElement" xOffset="-82"/>
    <component base="WaistElement" xOffset="-82" yOffset="304"/>
    <component base="RightElementV3" xOffset="247" yOffset="912"/>
    <component base="RightElementBV3" xOffset="328" yOffset="1216"/>
    <component base="RightElementBV3" xOffset="247" yOffset="912"/>
  </outline>
</glyph>
<glyph name="N" format="1">
  <advance width="1534"/>
  <unicode hex="004E"/>
  <outline>
    <contour>
      <point x="205" y="1400" type="qcurve"/>
      <point x="246" y="1400"/>
      <point x="246" y="1400"/>
      <point x="246" y="1361" type="qcurve"/>
      <point x="246" y="1324"/>
      <point x="246" y="1324"/>
      <point x="205" y="1324" type="qcurve"/>
      <point x="164" y="1324"/>
      <point x="164" y="1324"/>
      <point x="164" y="1361" type="qcurve"/>
      <point x="164" y="1400"/>
      <point x="164" y="1400"/>
    </contour>
    <contour>
      <point x="253" y="1400" type="qcurve"/>
      <point x="260" y="1400"/>
      <point x="260" y="1400"/>
      <point x="332" y="1361" type="qcurve"/>
      <point x="401" y="1324"/>
      <point x="401" y="1324"/>
      <point x="286" y="1324" type="qcurve"/>
      <point x="246" y="1324"/>
      <point x="246" y="1324"/>
      <point x="246" y="1361" type="qcurve"/>
      <point x="246" y="1400"/>
      <point x="246" y="1400"/>
    </contour>
    <contour>
      <point x="205" y="1324" type="qcurve"/>
      <point x="246" y="1324"/>
      <point x="246" y="1324"/>
      <point x="246" y="1285" type="qcurve"/>
      <point x="246" y="1248"/>
      <point x="246" y="1248"/>
      <point x="206" y="1248" type="qcurve"/>
      <point x="164" y="1248"/>
      <point x="164" y="1248"/>
      <point x="164" y="1285" type="qcurve"/>
      <point x="164" y="1324"/>
      <point x="164" y="1324"/>
    </contour>
    <contour>
      <point x="286" y="1324" type="qcurve"/>
      <point x="401" y="1324"/>
      <point x="401" y="1324"/>
      <point x="474" y="1285" type="qcurve"/>
      <point x="543" y="1248"/>
      <point x="543" y="1248"/>
      <point x="426" y="1248" type="qcurve"/>
      <point x="246" y="1248"/>
      <point x="246" y="1248"/>
      <point x="246" y="1285" type="qcurve"/>
      <point x="246" y="1324"/>
      <point x="246" y="1324"/>
    </contour>
    <contour>
      <point x="750" y="1135" type="qcurve"/>
      <point x="739" y="1141"/>
      <point x="585" y="1225"/>
      <point x="565" y="1236" type="qcurve"/>
      <point x="543" y="1248"/>
      <point x="543" y="1248"/>
      <point x="453" y="1248" type="qcurve"/>
      <point x="364" y="1248"/>
      <point x="364" y="1248"/>
      <point x="386" y="1236" type="qcurve"/>
      <point x="407" y="1225"/>
      <point x="700" y="1067"/>
      <point x="711" y="1061" type="qcurve"/>
      <point x="771" y="1030"/>
      <point x="771" y="1030"/>
      <point x="791" y="1067" type="qcurve"/>
      <point x="811" y="1104"/>
      <point x="811" y="1104"/>
    </contour>
    <contour>
      <point x="1016" y="899" type="qcurve"/>
      <point x="1206" y="798"/>
      <point x="1206" y="798"/>
      <point x="1206" y="846" type="qcurve"/>
      <point x="1206" y="891"/>
      <point x="1206" y="891"/>
      <point x="1054" y="972" type="qcurve"/>
      <point x="970" y="1016"/>
      <point x="882" y="1066"/>
      <point x="871" y="1072" type="qcurve"/>
      <point x="811" y="1104"/>
      <point x="811" y="1104"/>
      <point x="791" y="1067" type="qcurve"/>
      <point x="771" y="1030"/>
      <point x="771" y="1030"/>
      <point x="832" y="998" type="qcurve"/>
      <point x="843" y="992"/>
      <point x="929" y="945"/>
    </contour>
    <contour>
      <point x="791" y="924" type="qcurve"/>
      <point x="801" y="920"/>
      <point x="888" y="876"/>
      <point x="982" y="828" type="qcurve"/>
      <point x="1206" y="712"/>
      <point x="1206" y="712"/>
      <point x="1206" y="754" type="qcurve"/>
      <point x="1206" y="798"/>
      <point x="1206" y="798"/>
      <point x="1016" y="899" type="qcurve"/>
      <point x="929" y="945"/>
      <point x="843" y="992"/>
      <point x="832" y="998" type="qcurve"/>
      <point x="771" y="1030"/>
      <point x="771" y="1030"/>
      <point x="751" y="993" type="qcurve"/>
      <point x="731" y="955"/>
      <point x="731" y="955"/>
    </contour>
    <contour>
      <point x="348" y="1158" type="qcurve"/>
      <point x="362" y="1151"/>
      <point x="659" y="993"/>
      <point x="671" y="987" type="qcurve"/>
      <point x="731" y="955"/>
      <point x="731" y="955"/>
      <point x="751" y="993" type="qcurve"/>
      <point x="771" y="1030"/>
      <point x="771" y="1030"/>
      <point x="711" y="1061" type="qcurve"/>
      <point x="700" y="1067"/>
      <point x="407" y="1225"/>
      <point x="386" y="1236" type="qcurve"/>
      <point x="364" y="1248"/>
      <point x="364" y="1248"/>
      <point x="284" y="1248" type="qcurve"/>
      <point x="328" y="1169"/>
      <point x="328" y="1169"/>
    </contour>
    <contour>
      <point x="164" y="1178" type="qcurve"/>
      <point x="164" y="1060"/>
      <point x="164" y="872"/>
      <point x="164" y="754" type="qcurve"/>
      <point x="164" y="684"/>
      <point x="164" y="684"/>
      <point x="206" y="684" type="qcurve"/>
      <point x="246" y="684"/>
      <point x="246" y="684"/>
      <point x="246" y="754" type="qcurve"/>
      <point x="246" y="872"/>
      <point x="246" y="1060"/>
      <point x="246" y="1178" type="qcurve"/>
      <point x="246" y="1248"/>
      <point x="246" y="1248"/>
      <point x="206" y="1248" type="qcurve"/>
      <point x="164" y="1248"/>
      <point x="164" y="1248"/>
    </contour>
    <contour>
      <point x="246" y="614" type="qcurve"/>
      <point x="246" y="507"/>
      <point x="246" y="329"/>
      <point x="246" y="222" type="qcurve"/>
      <point x="246" y="152"/>
      <point x="246" y="152"/>
      <point x="289" y="152" type="qcurve"/>
      <point x="328" y="152"/>
      <point x="328" y="152"/>
      <point x="328" y="222" type="qcurve"/>
      <point x="328" y="329"/>
      <point x="328" y="507"/>
      <point x="328" y="614" type="qcurve"/>
      <point x="328" y="684"/>
      <point x="328" y="684"/>
      <point x="288" y="684" type="qcurve"/>
      <point x="246" y="684"/>
      <point x="246" y="684"/>
    </contour>
    <contour>
      <point x="328" y="1011" type="qcurve"/>
      <point x="328" y="1169"/>
      <point x="328" y="1169"/>
      <point x="306" y="1209" type="qcurve"/>
      <point x="284" y="1248"/>
      <point x="284" y="1248"/>
      <point x="265" y="1248" type="qcurve"/>
      <point x="246" y="1248"/>
      <point x="246" y="1248"/>
      <point x="246" y="1178" type="qcurve"/>
      <point x="246" y="1060"/>
      <point x="246" y="872"/>
      <point x="246" y="754" type="qcurve"/>
      <point x="246" y="684"/>
      <point x="246" y="684"/>
      <point x="288" y="684" type="qcurve"/>
      <point x="328" y="684"/>
      <point x="328" y="684"/>
      <point x="328" y="754" type="qcurve"/>
      <point x="328" y="873"/>
      <point x="328" y="957"/>
    </contour>
    <contour>
      <point x="1288" y="614" type="qcurve"/>
      <point x="1288" y="508"/>
      <point x="1288" y="319"/>
      <point x="1288" y="222" type="qcurve"/>
      <point x="1288" y="152"/>
      <point x="1288" y="152"/>
      <point x="1329" y="152" type="qcurve"/>
      <point x="1370" y="152"/>
      <point x="1370" y="152"/>
      <point x="1370" y="222" type="qcurve"/>
      <point x="1370" y="319"/>
      <point x="1370" y="508"/>
      <point x="1370" y="614" type="qcurve"/>
      <point x="1370" y="684"/>
      <point x="1370" y="684"/>
      <point x="1330" y="684" type="qcurve"/>
      <point x="1288" y="684"/>
      <point x="1288" y="684"/>
    </contour>
    <contour>
      <point x="1370" y="1146" type="qcurve"/>
      <point x="1370" y="1216"/>
      <point x="1370" y="1216"/>
      <point x="1329" y="1216" type="qcurve"/>
      <point x="1288" y="1216"/>
      <point x="1288" y="1216"/>
      <point x="1288" y="1146" type="qcurve"/>
      <point x="1288" y="1039"/>
      <point x="1288" y="941"/>
      <point x="1288" y="754" type="qcurve"/>
      <point x="1288" y="684"/>
      <point x="1288" y="684"/>
      <point x="1330" y="684" type="qcurve"/>
      <point x="1370" y="684"/>
      <point x="1370" y="684"/>
      <point x="1370" y="754" type="qcurve"/>
      <point x="1370" y="941"/>
      <point x="1370" y="1039"/>
    </contour>
    <contour>
      <point x="1288" y="754" type="qcurve"/>
      <point x="1288" y="941"/>
      <point x="1288" y="1039"/>
      <point x="1288" y="1146" type="qcurve"/>
      <point x="1288" y="1216"/>
      <point x="1288" y="1216"/>
      <point x="1247" y="1216" type="qcurve"/>
      <point x="1206" y="1216"/>
      <point x="1206" y="1216"/>
      <point x="1206" y="1146" type="qcurve"/>
      <point x="1206" y="1039"/>
      <point x="1206" y="941"/>
      <point x="1206" y="754" type="qcurve"/>
      <point x="1206" y="684"/>
      <point x="1206" y="684"/>
      <point x="1248" y="684" type="qcurve"/>
      <point x="1288" y="684"/>
      <point x="1288" y="684"/>
    </contour>
    <contour>
      <point x="1206" y="369" type="qcurve"/>
      <point x="1206" y="318"/>
      <point x="1206" y="318"/>
      <point x="1206" y="222" type="qcurve"/>
      <point x="1206" y="152"/>
      <point x="1206" y="152"/>
      <point x="1247" y="152" type="qcurve"/>
      <point x="1288" y="152"/>
      <point x="1288" y="152"/>
      <point x="1288" y="222" type="qcurve"/>
      <point x="1288" y="319"/>
      <point x="1288" y="508"/>
      <point x="1288" y="614" type="qcurve"/>
      <point x="1288" y="684"/>
      <point x="1288" y="684"/>
      <point x="1248" y="684" type="qcurve"/>
      <point x="1206" y="684"/>
      <point x="1206" y="684"/>
      <point x="1206" y="614" type="qcurve"/>
      <point x="1206" y="508"/>
      <point x="1206" y="416"/>
    </contour>
    <contour>
      <point x="164" y="614" type="qcurve"/>
      <point x="164" y="507"/>
      <point x="164" y="329"/>
      <point x="164" y="222" type="qcurve"/>
      <point x="164" y="152"/>
      <point x="164" y="152"/>
      <point x="207" y="152" type="qcurve"/>
      <point x="246" y="152"/>
      <point x="246" y="152"/>
      <point x="246" y="222" type="qcurve"/>
      <point x="246" y="329"/>
      <point x="246" y="507"/>
      <point x="246" y="614" type="qcurve"/>
      <point x="246" y="684"/>
      <point x="246" y="684"/>
      <point x="206" y="684" type="qcurve"/>
      <point x="164" y="684"/>
      <point x="164" y="684"/>
    </contour>
    <component base="BaseElementV3" xOffset="-82"/>
    <component base="TopElementV3" xOffset="960"/>
    <component base="BaseElementV3" xOffset="960"/>
  </outline>
</glyph>
<glyph name="O" format="1">
  <advance width="1640"/>
  <unicode hex="004F"/>
  <outline>
    <contour>
      <point x="126" y="608" type="qcurve" smooth="yes"/>
      <point x="85" y="608"/>
      <point x="85" y="608"/>
      <point x="83" y="646" type="qcurve"/>
      <point x="82" y="684"/>
      <point x="82" y="684"/>
      <point x="124" y="684" type="qcurve" smooth="yes"/>
      <point x="166" y="684"/>
      <point x="166" y="684"/>
      <point x="166" y="646" type="qcurve"/>
      <point x="166" y="608"/>
      <point x="166" y="608"/>
    </contour>
    <contour>
      <point x="211" y="608" type="qcurve" smooth="yes"/>
      <point x="166" y="608"/>
      <point x="166" y="608"/>
      <point x="166" y="646" type="qcurve"/>
      <point x="166" y="684"/>
      <point x="166" y="684"/>
      <point x="209" y="684" type="qcurve" smooth="yes"/>
      <point x="251" y="684"/>
      <point x="251" y="684"/>
      <point x="252" y="646" type="qcurve"/>
      <point x="255" y="608"/>
      <point x="255" y="608"/>
    </contour>
    <contour>
      <point x="124" y="684" type="qcurve" smooth="yes"/>
      <point x="82" y="684"/>
      <point x="82" y="684"/>
      <point x="83" y="722" type="qcurve"/>
      <point x="85" y="760"/>
      <point x="85" y="760"/>
      <point x="124" y="760" type="qcurve" smooth="yes"/>
      <point x="165" y="760"/>
      <point x="165" y="760"/>
      <point x="166" y="722" type="qcurve"/>
      <point x="166" y="684"/>
      <point x="166" y="684"/>
    </contour>
    <contour>
      <point x="209" y="684" type="qcurve" smooth="yes"/>
      <point x="166" y="684"/>
      <point x="166" y="684"/>
      <point x="166" y="722" type="qcurve"/>
      <point x="165" y="760"/>
      <point x="165" y="760"/>
      <point x="209" y="760" type="qcurve" smooth="yes"/>
      <point x="255" y="760"/>
      <point x="255" y="760"/>
      <point x="252" y="722" type="qcurve"/>
      <point x="251" y="684"/>
      <point x="251" y="684"/>
    </contour>
    <contour>
      <point x="738" y="1370" type="qcurve" smooth="yes"/>
      <point x="738" y="1411"/>
      <point x="738" y="1411"/>
      <point x="695" y="1406" type="qcurve"/>
      <point x="469" y="1371"/>
      <point x="121" y="1041"/>
      <point x="89" y="803" type="qcurve"/>
      <point x="85" y="760"/>
      <point x="85" y="760"/>
      <point x="124" y="760" type="qcurve" smooth="yes"/>
      <point x="165" y="760"/>
      <point x="165" y="760"/>
      <point x="171" y="800" type="qcurve"/>
      <point x="207" y="1002"/>
      <point x="507" y="1295"/>
      <point x="704" y="1328" type="qcurve"/>
      <point x="738" y="1332"/>
      <point x="738" y="1332"/>
    </contour>
    <contour>
      <point x="171" y="800" type="qcurve"/>
      <point x="165" y="760"/>
      <point x="165" y="760"/>
      <point x="209" y="760" type="qcurve" smooth="yes"/>
      <point x="255" y="760"/>
      <point x="255" y="760"/>
      <point x="261" y="798" type="qcurve"/>
      <point x="289" y="973"/>
      <point x="537" y="1216"/>
      <point x="713" y="1250" type="qcurve"/>
      <point x="738" y="1254"/>
      <point x="738" y="1254"/>
      <point x="738" y="1297" type="qcurve" smooth="yes"/>
      <point x="738" y="1332"/>
      <point x="738" y="1332"/>
      <point x="704" y="1328" type="qcurve"/>
      <point x="507" y="1295"/>
      <point x="207" y="1002"/>
    </contour>
    <contour>
      <point x="738" y="-8" type="qcurve"/>
      <point x="738" y="29"/>
      <point x="738" y="29"/>
      <point x="698" y="34" type="qcurve"/>
      <point x="507" y="65"/>
      <point x="206" y="371"/>
      <point x="171" y="568" type="qcurve"/>
      <point x="166" y="608"/>
      <point x="166" y="608"/>
      <point x="126" y="608" type="qcurve"/>
      <point x="85" y="608"/>
      <point x="85" y="608"/>
      <point x="89" y="565" type="qcurve"/>
      <point x="120" y="329"/>
      <point x="471" y="-5"/>
      <point x="695" y="-41" type="qcurve"/>
      <point x="738" y="-46"/>
      <point x="738" y="-46"/>
    </contour>
    <contour>
      <point x="171" y="568" type="qcurve"/>
      <point x="206" y="371"/>
      <point x="507" y="65"/>
      <point x="698" y="34" type="qcurve"/>
      <point x="738" y="29"/>
      <point x="738" y="29"/>
      <point x="738" y="62" type="qcurve" smooth="yes"/>
      <point x="738" y="103"/>
      <point x="738" y="103"/>
      <point x="699" y="109" type="qcurve"/>
      <point x="537" y="134"/>
      <point x="290" y="401"/>
      <point x="261" y="570" type="qcurve"/>
      <point x="255" y="608"/>
      <point x="255" y="608"/>
      <point x="211" y="608" type="qcurve"/>
      <point x="166" y="608"/>
      <point x="166" y="608"/>
    </contour>
    <contour>
      <point x="1514" y="608" type="qcurve" smooth="yes"/>
      <point x="1474" y="608"/>
      <point x="1474" y="608"/>
      <point x="1474" y="646" type="qcurve"/>
      <point x="1474" y="684"/>
      <point x="1474" y="684"/>
      <point x="1516" y="684" type="qcurve" smooth="yes"/>
      <point x="1558" y="684"/>
      <point x="1558" y="684"/>
      <point x="1557" y="646" type="qcurve"/>
      <point x="1555" y="608"/>
      <point x="1555" y="608"/>
    </contour>
    <contour>
      <point x="1429" y="608" type="qcurve" smooth="yes"/>
      <point x="1385" y="608"/>
      <point x="1385" y="608"/>
      <point x="1388" y="646" type="qcurve"/>
      <point x="1389" y="684"/>
      <point x="1389" y="684"/>
      <point x="1431" y="684" type="qcurve" smooth="yes"/>
      <point x="1474" y="684"/>
      <point x="1474" y="684"/>
      <point x="1474" y="646" type="qcurve"/>
      <point x="1474" y="608"/>
      <point x="1474" y="608"/>
    </contour>
    <contour>
      <point x="1516" y="684" type="qcurve" smooth="yes"/>
      <point x="1474" y="684"/>
      <point x="1474" y="684"/>
      <point x="1474" y="722" type="qcurve"/>
      <point x="1475" y="760"/>
      <point x="1475" y="760"/>
      <point x="1516" y="760" type="qcurve" smooth="yes"/>
      <point x="1555" y="760"/>
      <point x="1555" y="760"/>
      <point x="1557" y="722" type="qcurve"/>
      <point x="1558" y="684"/>
      <point x="1558" y="684"/>
    </contour>
    <contour>
      <point x="1431" y="684" type="qcurve" smooth="yes"/>
      <point x="1389" y="684"/>
      <point x="1389" y="684"/>
      <point x="1388" y="722" type="qcurve"/>
      <point x="1385" y="760"/>
      <point x="1385" y="760"/>
      <point x="1431" y="760" type="qcurve" smooth="yes"/>
      <point x="1475" y="760"/>
      <point x="1475" y="760"/>
      <point x="1474" y="722" type="qcurve"/>
      <point x="1474" y="684"/>
      <point x="1474" y="684"/>
    </contour>
    <contour>
      <point x="902" y="1371" type="qcurve" smooth="yes"/>
      <point x="902" y="1334"/>
      <point x="902" y="1334"/>
      <point x="936" y="1328" type="qcurve"/>
      <point x="1133" y="1295"/>
      <point x="1433" y="1002"/>
      <point x="1469" y="800" type="qcurve"/>
      <point x="1475" y="760"/>
      <point x="1475" y="760"/>
      <point x="1516" y="760" type="qcurve" smooth="yes"/>
      <point x="1555" y="760"/>
      <point x="1555" y="760"/>
      <point x="1551" y="803" type="qcurve"/>
      <point x="1519" y="1041"/>
      <point x="1171" y="1371"/>
      <point x="945" y="1406" type="qcurve"/>
      <point x="902" y="1410"/>
      <point x="902" y="1410"/>
    </contour>
    <contour>
      <point x="1469" y="800" type="qcurve"/>
      <point x="1433" y="1002"/>
      <point x="1133" y="1295"/>
      <point x="936" y="1328" type="qcurve"/>
      <point x="902" y="1334"/>
      <point x="902" y="1334"/>
      <point x="902" y="1296" type="qcurve" smooth="yes"/>
      <point x="902" y="1254"/>
      <point x="902" y="1254"/>
      <point x="927" y="1249" type="qcurve"/>
      <point x="1103" y="1215"/>
      <point x="1351" y="973"/>
      <point x="1379" y="798" type="qcurve"/>
      <point x="1385" y="760"/>
      <point x="1385" y="760"/>
      <point x="1431" y="760" type="qcurve" smooth="yes"/>
      <point x="1475" y="760"/>
      <point x="1475" y="760"/>
    </contour>
    <contour>
      <point x="902" y="-8" type="qcurve" smooth="yes"/>
      <point x="902" y="-46"/>
      <point x="902" y="-46"/>
      <point x="942" y="-43" type="qcurve"/>
      <point x="1160" y="-18"/>
      <point x="1522" y="336"/>
      <point x="1551" y="565" type="qcurve"/>
      <point x="1555" y="608"/>
      <point x="1555" y="608"/>
      <point x="1514" y="608" type="qcurve"/>
      <point x="1474" y="608"/>
      <point x="1474" y="608"/>
      <point x="1469" y="568" type="qcurve"/>
      <point x="1434" y="371"/>
      <point x="1133" y="65"/>
      <point x="942" y="34" type="qcurve"/>
      <point x="902" y="28"/>
      <point x="902" y="28"/>
    </contour>
    <contour>
      <point x="1469" y="568" type="qcurve"/>
      <point x="1474" y="608"/>
      <point x="1474" y="608"/>
      <point x="1429" y="608" type="qcurve"/>
      <point x="1385" y="608"/>
      <point x="1385" y="608"/>
      <point x="1379" y="570" type="qcurve"/>
      <point x="1353" y="408"/>
      <point x="1111" y="140"/>
      <point x="943" y="109" type="qcurve"/>
      <point x="902" y="103"/>
      <point x="902" y="103"/>
      <point x="902" y="63" type="qcurve" smooth="yes"/>
      <point x="902" y="28"/>
      <point x="902" y="28"/>
      <point x="942" y="34" type="qcurve"/>
      <point x="1133" y="65"/>
      <point x="1434" y="371"/>
    </contour>
    <contour>
      <point x="781" y="99" type="qcurve"/>
      <point x="820" y="98"/>
      <point x="820" y="98"/>
      <point x="820" y="60" type="qcurve"/>
      <point x="820" y="23"/>
      <point x="820" y="23"/>
      <point x="780" y="24" type="qcurve"/>
      <point x="738" y="29"/>
      <point x="738" y="29"/>
      <point x="738" y="62" type="qcurve" smooth="yes"/>
      <point x="738" y="103"/>
      <point x="738" y="103"/>
    </contour>
    <contour>
      <point x="780" y="24" type="qcurve"/>
      <point x="820" y="23"/>
      <point x="820" y="23"/>
      <point x="820" y="-12" type="qcurve"/>
      <point x="820" y="-50"/>
      <point x="820" y="-50"/>
      <point x="779" y="-49" type="qcurve"/>
      <point x="738" y="-46"/>
      <point x="738" y="-46"/>
      <point x="738" y="-8" type="qcurve"/>
      <point x="738" y="29"/>
      <point x="738" y="29"/>
    </contour>
    <contour>
      <point x="859" y="99" type="qcurve"/>
      <point x="902" y="103"/>
      <point x="902" y="103"/>
      <point x="902" y="63" type="qcurve" smooth="yes"/>
      <point x="902" y="28"/>
      <point x="902" y="28"/>
      <point x="860" y="24" type="qcurve"/>
      <point x="820" y="23"/>
      <point x="820" y="23"/>
      <point x="820" y="60" type="qcurve"/>
      <point x="820" y="98"/>
      <point x="820" y="98"/>
    </contour>
    <contour>
      <point x="860" y="24" type="qcurve"/>
      <point x="902" y="28"/>
      <point x="902" y="28"/>
      <point x="902" y="-8" type="qcurve"/>
      <point x="902" y="-46"/>
      <point x="902" y="-46"/>
      <point x="861" y="-49" type="qcurve"/>
      <point x="820" y="-50"/>
      <point x="820" y="-50"/>
      <point x="820" y="-12" type="qcurve"/>
      <point x="820" y="23"/>
      <point x="820" y="23"/>
    </contour>
    <contour>
      <point x="781" y="1258" type="qcurve"/>
      <point x="738" y="1254"/>
      <point x="738" y="1254"/>
      <point x="738" y="1297" type="qcurve" smooth="yes"/>
      <point x="738" y="1332"/>
      <point x="738" y="1332"/>
      <point x="780" y="1337" type="qcurve"/>
      <point x="820" y="1338"/>
      <point x="820" y="1338"/>
      <point x="820" y="1299" type="qcurve"/>
      <point x="820" y="1259"/>
      <point x="820" y="1259"/>
    </contour>
    <contour>
      <point x="780" y="1337" type="qcurve"/>
      <point x="738" y="1332"/>
      <point x="738" y="1332"/>
      <point x="738" y="1370" type="qcurve"/>
      <point x="738" y="1411"/>
      <point x="738" y="1411"/>
      <point x="779" y="1413" type="qcurve"/>
      <point x="820" y="1414"/>
      <point x="820" y="1414"/>
      <point x="820" y="1374" type="qcurve"/>
      <point x="820" y="1338"/>
      <point x="820" y="1338"/>
    </contour>
    <contour>
      <point x="859" y="1258" type="qcurve"/>
      <point x="820" y="1259"/>
      <point x="820" y="1259"/>
      <point x="820" y="1299" type="qcurve"/>
      <point x="820" y="1338"/>
      <point x="820" y="1338"/>
      <point x="860" y="1337" type="qcurve"/>
      <point x="902" y="1334"/>
      <point x="902" y="1334"/>
      <point x="902" y="1296" type="qcurve" smooth="yes"/>
      <point x="902" y="1254"/>
      <point x="902" y="1254"/>
    </contour>
    <contour>
      <point x="860" y="1337" type="qcurve"/>
      <point x="820" y="1338"/>
      <point x="820" y="1338"/>
      <point x="820" y="1374" type="qcurve"/>
      <point x="820" y="1414"/>
      <point x="820" y="1414"/>
      <point x="861" y="1413" type="qcurve"/>
      <point x="902" y="1410"/>
      <point x="902" y="1410"/>
      <point x="902" y="1371" type="qcurve"/>
      <point x="902" y="1334"/>
      <point x="902" y="1334"/>
    </contour>
  </outline>
</glyph>
<glyph name="P" format="1">
  <advance width="1010.0"/>
  <unicode hex="0050"/>
  <outline>
    <contour>
      <point x="420" y="1292" type="qcurve"/>
      <point x="605" y="1292"/>
      <point x="854" y="1080"/>
      <point x="854" y="918" type="qcurve" smooth="yes"/>
      <point x="854" y="752"/>
      <point x="609" y="538"/>
      <point x="420" y="538" type="qcurve"/>
      <point x="409" y="538"/>
      <point x="390" y="538"/>
      <point x="379" y="538" type="qcurve"/>
      <point x="328" y="538"/>
      <point x="328" y="538"/>
      <point x="328" y="576" type="qcurve"/>
      <point x="328" y="614"/>
      <point x="328" y="614"/>
      <point x="379" y="614" type="qcurve"/>
      <point x="390" y="614"/>
      <point x="409" y="614"/>
      <point x="420" y="614" type="qcurve"/>
      <point x="578" y="614"/>
      <point x="766" y="771"/>
      <point x="766" y="918" type="qcurve" smooth="yes"/>
      <point x="766" y="1045"/>
      <point x="571" y="1216"/>
      <point x="420" y="1216" type="qcurve"/>
      <point x="412" y="1216"/>
      <point x="388" y="1216"/>
      <point x="382" y="1216" type="qcurve"/>
      <point x="328" y="1216"/>
      <point x="328" y="1216"/>
      <point x="328" y="1252" type="qcurve"/>
      <point x="328" y="1292"/>
      <point x="328" y="1292"/>
      <point x="382" y="1292" type="qcurve"/>
      <point x="388" y="1292"/>
      <point x="412" y="1292"/>
    </contour>
    <contour>
      <point x="428" y="1368" type="qcurve" smooth="yes"/>
      <point x="648" y="1368"/>
      <point x="933" y="1115"/>
      <point x="933" y="919" type="qcurve" smooth="yes"/>
      <point x="933" y="721"/>
      <point x="648" y="462"/>
      <point x="428" y="462" type="qcurve"/>
      <point x="408" y="462"/>
      <point x="395" y="462"/>
      <point x="384" y="462" type="qcurve"/>
      <point x="328" y="462"/>
      <point x="328" y="462"/>
      <point x="328" y="500" type="qcurve"/>
      <point x="328" y="538"/>
      <point x="328" y="538"/>
      <point x="384" y="538" type="qcurve"/>
      <point x="393" y="538"/>
      <point x="402" y="538"/>
      <point x="420" y="538" type="qcurve"/>
      <point x="609" y="538"/>
      <point x="854" y="752"/>
      <point x="854" y="918" type="qcurve" smooth="yes"/>
      <point x="854" y="1080"/>
      <point x="605" y="1292"/>
      <point x="420" y="1292" type="qcurve" smooth="yes"/>
      <point x="412" y="1292"/>
      <point x="393" y="1292"/>
      <point x="383" y="1292" type="qcurve"/>
      <point x="328" y="1292"/>
      <point x="328" y="1292"/>
      <point x="328" y="1330" type="qcurve"/>
      <point x="328" y="1368"/>
      <point x="328" y="1368"/>
      <point x="383" y="1368" type="qcurve"/>
      <point x="395" y="1368"/>
      <point x="418" y="1368"/>
    </contour>
    <contour>
      <point x="246" y="652" type="qcurve" smooth="yes"/>
      <point x="246" y="614"/>
      <point x="246" y="614"/>
      <point x="205" y="614" type="qcurve" smooth="yes"/>
      <point x="164" y="614"/>
      <point x="164" y="614"/>
      <point x="164" y="652" type="qcurve" smooth="yes"/>
      <point x="164" y="690"/>
      <point x="164" y="801"/>
      <point x="164" y="916" type="qcurve" smooth="yes"/>
      <point x="164" y="1026"/>
      <point x="164" y="1140"/>
      <point x="164" y="1178" type="qcurve" smooth="yes"/>
      <point x="164" y="1216"/>
      <point x="164" y="1216"/>
      <point x="205" y="1216" type="qcurve" smooth="yes"/>
      <point x="246" y="1216"/>
      <point x="246" y="1216"/>
      <point x="246" y="1178" type="qcurve" smooth="yes"/>
      <point x="246" y="1140"/>
      <point x="246" y="1026"/>
      <point x="246" y="916" type="qcurve" smooth="yes"/>
      <point x="246" y="801"/>
      <point x="246" y="690"/>
    </contour>
    <contour>
      <point x="328" y="652" type="qcurve" smooth="yes"/>
      <point x="328" y="614"/>
      <point x="328" y="614"/>
      <point x="287" y="614" type="qcurve" smooth="yes"/>
      <point x="246" y="614"/>
      <point x="246" y="614"/>
      <point x="246" y="652" type="qcurve" smooth="yes"/>
      <point x="246" y="690"/>
      <point x="246" y="801"/>
      <point x="246" y="916" type="qcurve" smooth="yes"/>
      <point x="246" y="1026"/>
      <point x="246" y="1140"/>
      <point x="246" y="1178" type="qcurve" smooth="yes"/>
      <point x="246" y="1216"/>
      <point x="246" y="1216"/>
      <point x="287" y="1216" type="qcurve" smooth="yes"/>
      <point x="328" y="1216"/>
      <point x="328" y="1216"/>
      <point x="328" y="1178" type="qcurve" smooth="yes"/>
      <point x="328" y="1140"/>
      <point x="328" y="1026"/>
      <point x="328" y="916" type="qcurve" smooth="yes"/>
      <point x="328" y="801"/>
      <point x="328" y="690"/>
    </contour>
    <contour>
      <point x="246" y="190" type="qcurve" smooth="yes"/>
      <point x="246" y="152"/>
      <point x="246" y="152"/>
      <point x="205" y="152" type="qcurve" smooth="yes"/>
      <point x="164" y="152"/>
      <point x="164" y="152"/>
      <point x="164" y="190" type="qcurve" smooth="yes"/>
      <point x="164" y="228"/>
      <point x="164" y="247"/>
      <point x="164" y="308" type="qcurve"/>
      <point x="164" y="368"/>
      <point x="164" y="386"/>
      <point x="164" y="424" type="qcurve" smooth="yes"/>
      <point x="164" y="462"/>
      <point x="164" y="462"/>
      <point x="205" y="462" type="qcurve" smooth="yes"/>
      <point x="246" y="462"/>
      <point x="246" y="462"/>
      <point x="246" y="424" type="qcurve" smooth="yes"/>
      <point x="246" y="386"/>
      <point x="246" y="368"/>
      <point x="246" y="308" type="qcurve"/>
      <point x="246" y="247"/>
      <point x="246" y="228"/>
    </contour>
    <contour>
      <point x="328" y="190" type="qcurve" smooth="yes"/>
      <point x="328" y="152"/>
      <point x="328" y="152"/>
      <point x="287" y="152" type="qcurve" smooth="yes"/>
      <point x="246" y="152"/>
      <point x="246" y="152"/>
      <point x="246" y="190" type="qcurve" smooth="yes"/>
      <point x="246" y="228"/>
      <point x="246" y="247"/>
      <point x="246" y="308" type="qcurve"/>
      <point x="246" y="368"/>
      <point x="246" y="386"/>
      <point x="246" y="424" type="qcurve" smooth="yes"/>
      <point x="246" y="462"/>
      <point x="246" y="462"/>
      <point x="287" y="462" type="qcurve" smooth="yes"/>
      <point x="328" y="462"/>
      <point x="328" y="462"/>
      <point x="328" y="424" type="qcurve" smooth="yes"/>
      <point x="328" y="386"/>
      <point x="328" y="368"/>
      <point x="328" y="308" type="qcurve"/>
      <point x="328" y="247"/>
      <point x="328" y="228"/>
    </contour>
    <component base="WaistElement" xOffset="-82" yOffset="-146"/>
    <component base="BaseElementV3" xOffset="-82"/>
    <component base="TopElementV2" xOffset="-82"/>
  </outline>
</glyph>
<glyph name="S" format="1">
  <advance width="812"/>
  <unicode hex="0053"/>
  <outline>
    <contour>
      <point x="566" y="1260" type="qcurve"/>
      <point x="610" y="1249"/>
      <point x="610" y="1249"/>
      <point x="610" y="1289" type="qcurve"/>
      <point x="610" y="1328"/>
      <point x="610" y="1328"/>
      <point x="570" y="1336" type="qcurve"/>
      <point x="528" y="1343"/>
      <point x="528" y="1343"/>
      <point x="528" y="1307" type="qcurve" smooth="yes"/>
      <point x="528" y="1266"/>
      <point x="528" y="1266"/>
    </contour>
    <contour>
      <point x="570" y="1336" type="qcurve"/>
      <point x="610" y="1328"/>
      <point x="610" y="1328"/>
      <point x="610" y="1365" type="qcurve"/>
      <point x="610" y="1403"/>
      <point x="610" y="1403"/>
      <point x="569" y="1410" type="qcurve"/>
      <point x="528" y="1413"/>
      <point x="528" y="1413"/>
      <point x="528" y="1384" type="qcurve"/>
      <point x="528" y="1343"/>
      <point x="528" y="1343"/>
    </contour>
    <contour>
      <point x="649" y="1235" type="qcurve"/>
      <point x="692" y="1215"/>
      <point x="692" y="1215"/>
      <point x="692" y="1253" type="qcurve"/>
      <point x="692" y="1295"/>
      <point x="692" y="1295"/>
      <point x="651" y="1315" type="qcurve"/>
      <point x="610" y="1328"/>
      <point x="610" y="1328"/>
      <point x="610" y="1289" type="qcurve"/>
      <point x="610" y="1249"/>
      <point x="610" y="1249"/>
    </contour>
    <contour>
      <point x="651" y="1315" type="qcurve"/>
      <point x="692" y="1295"/>
      <point x="692" y="1295"/>
      <point x="692" y="1336" type="qcurve"/>
      <point x="692" y="1377"/>
      <point x="692" y="1377"/>
      <point x="651" y="1392" type="qcurve"/>
      <point x="610" y="1403"/>
      <point x="610" y="1403"/>
      <point x="610" y="1365" type="qcurve"/>
      <point x="610" y="1328"/>
      <point x="610" y="1328"/>
    </contour>
    <contour>
      <point x="708" y="361" type="qcurve" smooth="yes"/>
      <point x="708" y="209"/>
      <point x="490" y="27"/>
      <point x="322" y="27" type="qcurve" smooth="yes"/>
      <point x="287" y="27"/>
      <point x="221" y="31"/>
      <point x="192" y="34" type="qcurve"/>
      <point x="192" y="105" type="line"/>
      <point x="219" y="101"/>
      <point x="282" y="96"/>
      <point x="318" y="96" type="qcurve" smooth="yes"/>
      <point x="451" y="96"/>
      <point x="626" y="236"/>
      <point x="626" y="348" type="qcurve" smooth="yes"/>
      <point x="626" y="441"/>
      <point x="516" y="559"/>
      <point x="355" y="644" type="qcurve" smooth="yes"/>
      <point x="192" y="730"/>
      <point x="49" y="910"/>
      <point x="49" y="1029" type="qcurve" smooth="yes"/>
      <point x="49" y="1205"/>
      <point x="300" y="1414"/>
      <point x="506" y="1414" type="qcurve" smooth="yes"/>
      <point x="512" y="1414"/>
      <point x="521" y="1413"/>
      <point x="528" y="1413" type="qcurve"/>
      <point x="528" y="1343" type="line"/>
      <point x="515" y="1344"/>
      <point x="487" y="1345"/>
      <point x="472" y="1345" type="qcurve" smooth="yes"/>
      <point x="341" y="1345"/>
      <point x="131" y="1180"/>
      <point x="131" y="1047" type="qcurve" smooth="yes"/>
      <point x="131" y="945"/>
      <point x="242" y="803"/>
      <point x="410" y="709" type="qcurve" smooth="yes"/>
      <point x="570" y="620"/>
      <point x="708" y="478"/>
    </contour>
    <contour>
      <point x="154" y="111" type="qcurve"/>
      <point x="110" y="124"/>
      <point x="110" y="124"/>
      <point x="110" y="92" type="qcurve"/>
      <point x="110" y="51"/>
      <point x="110" y="51"/>
      <point x="150" y="41" type="qcurve"/>
      <point x="192" y="34"/>
      <point x="192" y="34"/>
      <point x="192" y="74" type="qcurve" smooth="yes"/>
      <point x="192" y="105"/>
      <point x="192" y="105"/>
    </contour>
    <contour>
      <point x="150" y="41" type="qcurve"/>
      <point x="110" y="51"/>
      <point x="110" y="51"/>
      <point x="110" y="16" type="qcurve"/>
      <point x="110" y="-22"/>
      <point x="110" y="-22"/>
      <point x="151" y="-29" type="qcurve"/>
      <point x="192" y="-34"/>
      <point x="192" y="-34"/>
      <point x="192" y="-3" type="qcurve"/>
      <point x="192" y="34"/>
      <point x="192" y="34"/>
    </contour>
    <contour>
      <point x="71" y="139" type="qcurve"/>
      <point x="28" y="161"/>
      <point x="28" y="161"/>
      <point x="28" y="128" type="qcurve"/>
      <point x="28" y="82"/>
      <point x="28" y="82"/>
      <point x="69" y="63" type="qcurve"/>
      <point x="110" y="51"/>
      <point x="110" y="51"/>
      <point x="110" y="92" type="qcurve"/>
      <point x="110" y="124"/>
      <point x="110" y="124"/>
    </contour>
    <contour>
      <point x="69" y="63" type="qcurve"/>
      <point x="28" y="82"/>
      <point x="28" y="82"/>
      <point x="28" y="45" type="qcurve"/>
      <point x="28" y="4"/>
      <point x="28" y="4"/>
      <point x="69" y="-11" type="qcurve"/>
      <point x="110" y="-22"/>
      <point x="110" y="-22"/>
      <point x="110" y="16" type="qcurve"/>
      <point x="110" y="51"/>
      <point x="110" y="51"/>
    </contour>
    <contour>
      <point x="784" y="372" type="qcurve" smooth="yes"/>
      <point x="784" y="178"/>
      <point x="522" y="-41"/>
      <point x="322" y="-41" type="qcurve" smooth="yes"/>
      <point x="287" y="-41"/>
      <point x="221" y="-37"/>
      <point x="192" y="-34" type="qcurve"/>
      <point x="192" y="35" type="line"/>
      <point x="219" y="31"/>
      <point x="287" y="27"/>
      <point x="322" y="27" type="qcurve" smooth="yes"/>
      <point x="490" y="27"/>
      <point x="708" y="209"/>
      <point x="708" y="361" type="qcurve" smooth="yes"/>
      <point x="708" y="478"/>
      <point x="570" y="620"/>
      <point x="410" y="709" type="qcurve" smooth="yes"/>
      <point x="242" y="803"/>
      <point x="131" y="945"/>
      <point x="131" y="1047" type="qcurve" smooth="yes"/>
      <point x="131" y="1180"/>
      <point x="341" y="1345"/>
      <point x="472" y="1345" type="qcurve" smooth="yes"/>
      <point x="487" y="1345"/>
      <point x="515" y="1344"/>
      <point x="528" y="1343" type="qcurve"/>
      <point x="528" y="1266" type="line"/>
      <point x="515" y="1267"/>
      <point x="487" y="1268"/>
      <point x="472" y="1268" type="qcurve" smooth="yes"/>
      <point x="356" y="1268"/>
      <point x="207" y="1152"/>
      <point x="207" y="1064" type="qcurve" smooth="yes"/>
      <point x="207" y="973"/>
      <point x="299" y="870"/>
      <point x="467" y="776" type="qcurve" smooth="yes"/>
      <point x="627" y="687"/>
      <point x="784" y="500"/>
    </contour>
  </outline>
</glyph>
<glyph name="grave" format="1">
  <advance width="1024"/>
  <unicode hex="0060"/>
  <outline>
    <contour>
      <point x="561" y="1000" type="line"/>
      <point x="223" y="1277" type="line"/>
      <point x="481" y="1277" type="line"/>
      <point x="759" y="1000" type="line"/>
    </contour>
  </outline>
</glyph>
<glyph name="braceleft" format="1">
  <advance width="560"/>
  <unicode hex="007B"/>
  <outline>
    <contour>
      <point x="269" y="522" type="line"/>
      <point x="318" y="522"/>
      <point x="385" y="605"/>
      <point x="385" y="673" type="qcurve" smooth="yes"/>
      <point x="385" y="761"/>
      <point x="230" y="954"/>
      <point x="230" y="1050" type="qcurve" smooth="yes"/>
      <point x="230" y="1146"/>
      <point x="327" y="1248"/>
      <point x="436" y="1248" type="qcurve" smooth="yes"/>
      <point x="560" y="1248" type="line"/>
      <point x="560" y="1400" type="line"/>
      <point x="388" y="1400" type="line" smooth="yes"/>
      <point x="263" y="1400"/>
      <point x="69" y="1231"/>
      <point x="69" y="1050" type="qcurve" smooth="yes"/>
      <point x="69" y="937"/>
      <point x="220" y="764"/>
      <point x="220" y="701" type="qcurve" smooth="yes"/>
      <point x="220" y="654"/>
      <point x="174" y="580"/>
      <point x="140" y="584" type="qcurve" smooth="yes"/>
      <point x="58" y="584" type="line"/>
      <point x="58" y="441" type="line"/>
      <point x="140" y="441" type="line" smooth="yes"/>
      <point x="174" y="441"/>
      <point x="220" y="384"/>
      <point x="220" y="336" type="qcurve" smooth="yes"/>
      <point x="220" y="250"/>
      <point x="70" y="3"/>
      <point x="70" y="-124" type="qcurve" smooth="yes"/>
      <point x="70" y="-281"/>
      <point x="275" y="-500"/>
      <point x="428" y="-500" type="qcurve" smooth="yes"/>
      <point x="560" y="-500" type="line"/>
      <point x="560" y="-350" type="line"/>
      <point x="436" y="-350" type="line" smooth="yes"/>
      <point x="346" y="-350"/>
      <point x="230" y="-212"/>
      <point x="230" y="-116" type="qcurve" smooth="yes"/>
      <point x="230" y="-2"/>
      <point x="385" y="244"/>
      <point x="385" y="346" type="qcurve" smooth="yes"/>
      <point x="385" y="410"/>
      <point x="318" y="493"/>
      <point x="269" y="493" type="qcurve"/>
    </contour>
  </outline>
</glyph>
<glyph name="acute" format="1">
  <advance width="1024"/>
  <unicode hex="00B4"/>
  <outline>
    <contour>
      <point x="464" y="1000" type="line"/>
      <point x="266" y="1000" type="line"/>
      <point x="544" y="1277" type="line"/>
      <point x="802" y="1277" type="line"/>
    </contour>
  </outline>
</glyph>
<glyph name="germandbls" format="1">
  <advance width="1041"/>
  <unicode hex="00DF"/>
  <outline>
    <contour>
      <point x="918" y="1130" type="qcurve" smooth="yes"/>
      <point x="918" y="997"/>
      <point x="823" y="844"/>
      <point x="740" y="792" type="qcurve" smooth="yes"/>
      <point x="690" y="761"/>
      <point x="627" y="709"/>
      <point x="627" y="680" type="qcurve" smooth="yes"/>
      <point x="627" y="639"/>
      <point x="707" y="572"/>
      <point x="790" y="528" type="qcurve" smooth="yes"/>
      <point x="877" y="482"/>
      <point x="1001" y="353"/>
      <point x="1001" y="263" type="qcurve" smooth="yes"/>
      <point x="1001" y="142"/>
      <point x="789" y="-20"/>
      <point x="648" y="-20" type="qcurve" smooth="yes"/>
      <point x="561" y="-20"/>
      <point x="482" y="-9"/>
      <point x="446" y="0" type="qcurve"/>
      <point x="446" y="150" type="line"/>
      <point x="479" y="134"/>
      <point x="559" y="120"/>
      <point x="637" y="120" type="qcurve" smooth="yes"/>
      <point x="701" y="120"/>
      <point x="835" y="187"/>
      <point x="835" y="256" type="qcurve" smooth="yes"/>
      <point x="835" y="308"/>
      <point x="756" y="372"/>
      <point x="673" y="416" type="qcurve" smooth="yes"/>
      <point x="576" y="468"/>
      <point x="463" y="586"/>
      <point x="463" y="673" type="qcurve" smooth="yes"/>
      <point x="463" y="759"/>
      <point x="628" y="880"/>
      <point x="669" y="907" type="qcurve" smooth="yes"/>
      <point x="725" y="943"/>
      <point x="769" y="1052"/>
      <point x="769" y="1127" type="qcurve" smooth="yes"/>
      <point x="769" y="1254"/>
      <point x="632" y="1385"/>
      <point x="541" y="1385" type="qcurve" smooth="yes"/>
      <point x="430" y="1385"/>
      <point x="304" y="1244"/>
      <point x="304" y="1068" type="qcurve" smooth="yes"/>
      <point x="304" y="0" type="line"/>
      <point x="148" y="0" type="line"/>
      <point x="148" y="1103" type="line" smooth="yes"/>
      <point x="148" y="1317"/>
      <point x="354" y="1521"/>
      <point x="537" y="1521" type="qcurve" smooth="yes"/>
      <point x="702" y="1521"/>
      <point x="918" y="1321"/>
    </contour>
  </outline>
</glyph>
<glyph name="CapCrossbarElement" format="1">
  <advance width="1148"/>
  <outline>
    <contour>
      <point x="944" y="684" type="qcurve" smooth="yes"/>
      <point x="984" y="684"/>
      <point x="984" y="684"/>
      <point x="984" y="645" type="qcurve" smooth="yes"/>
      <point x="984" y="608"/>
      <point x="984" y="608"/>
      <point x="944" y="608" type="qcurve" smooth="yes"/>
      <point x="820" y="608"/>
      <point x="328" y="608"/>
      <point x="204" y="608" type="qcurve" smooth="yes"/>
      <point x="164" y="608"/>
      <point x="164" y="608"/>
      <point x="164" y="646" type="qcurve" smooth="yes"/>
      <point x="164" y="684"/>
      <point x="164" y="684"/>
      <point x="204" y="684" type="qcurve"/>
      <point x="328" y="684"/>
      <point x="820" y="684"/>
    </contour>
    <contour>
      <point x="944" y="760" type="qcurve" smooth="yes"/>
      <point x="984" y="760"/>
      <point x="984" y="760"/>
      <point x="984" y="721" type="qcurve" smooth="yes"/>
      <point x="984" y="684"/>
      <point x="984" y="684"/>
      <point x="944" y="684" type="qcurve" smooth="yes"/>
      <point x="820" y="684"/>
      <point x="328" y="684"/>
      <point x="204" y="684" type="qcurve" smooth="yes"/>
      <point x="164" y="684"/>
      <point x="164" y="684"/>
      <point x="164" y="722" type="qcurve" smooth="yes"/>
      <point x="164" y="760"/>
      <point x="164" y="760"/>
      <point x="204" y="760" type="qcurve"/>
      <point x="328" y="760"/>
      <point x="820" y="760"/>
    </contour>
  </outline>
</glyph>
<glyph name="TopCurvedElement" format="1">
  <advance width="656"/>
  <outline>
    <contour>
      <point x="289" y="1210" type="qcurve"/>
      <point x="328" y="1193"/>
      <point x="328" y="1193"/>
      <point x="328" y="1229" type="qcurve"/>
      <point x="328" y="1280"/>
      <point x="328" y="1280"/>
      <point x="288" y="1294" type="qcurve"/>
      <point x="246" y="1306"/>
      <point x="246" y="1306"/>
      <point x="246" y="1261" type="qcurve" smooth="yes"/>
      <point x="246" y="1225"/>
      <point x="246" y="1225"/>
    </contour>
    <contour>
      <point x="288" y="1294" type="qcurve"/>
      <point x="328" y="1280"/>
      <point x="328" y="1280"/>
      <point x="328" y="1324" type="qcurve"/>
      <point x="328" y="1365"/>
      <point x="328" y="1365"/>
      <point x="287" y="1377" type="qcurve"/>
      <point x="246" y="1387"/>
      <point x="246" y="1387"/>
      <point x="246" y="1344" type="qcurve"/>
      <point x="246" y="1306"/>
      <point x="246" y="1306"/>
    </contour>
    <contour>
      <point x="367" y="1172" type="qcurve"/>
      <point x="410" y="1144"/>
      <point x="410" y="1144"/>
      <point x="410" y="1205" type="qcurve" smooth="yes"/>
      <point x="410" y="1243"/>
      <point x="410" y="1243"/>
      <point x="369" y="1263" type="qcurve"/>
      <point x="328" y="1280"/>
      <point x="328" y="1280"/>
      <point x="328" y="1229" type="qcurve"/>
      <point x="328" y="1193"/>
      <point x="328" y="1193"/>
    </contour>
    <contour>
      <point x="369" y="1263" type="qcurve"/>
      <point x="410" y="1243"/>
      <point x="410" y="1243"/>
      <point x="410" y="1292" type="qcurve"/>
      <point x="410" y="1331"/>
      <point x="410" y="1331"/>
      <point x="369" y="1349" type="qcurve"/>
      <point x="328" y="1365"/>
      <point x="328" y="1365"/>
      <point x="328" y="1324" type="qcurve"/>
      <point x="328" y="1280"/>
      <point x="328" y="1280"/>
    </contour>
  </outline>
</glyph>
